<svg xmlns="http://www.w3.org/2000/svg" xmlns:xlink="http://www.w3.org/1999/xlink" width="160" zoomAndPan="magnify" viewBox="0 0 120 37.5" height="50" preserveAspectRatio="xMidYMid meet" version="1.0"><defs><g/><clipPath id="49c33fba6c"><path d="M 1 6.128906 L 26 6.128906 L 26 30.546875 L 1 30.546875 Z M 1 6.128906 " clip-rule="nonzero"/></clipPath></defs><g clip-path="url(#49c33fba6c)"><path fill="#ea728c" d="M 13.480469 30.542969 C 13.25 30.542969 13.019531 30.457031 12.84375 30.285156 L 4.503906 22.015625 C 0.863281 18.40625 0.789062 12.535156 4.339844 8.925781 C 6.089844 7.148438 8.4375 6.15625 10.953125 6.132812 C 13.476562 6.121094 15.835938 7.066406 17.613281 8.816406 L 18.222656 9.417969 C 18.921875 8.960938 19.746094 8.714844 20.605469 8.714844 C 21.769531 8.714844 22.863281 9.164062 23.683594 9.980469 C 26.695312 12.960938 26.691406 17.816406 23.683594 20.796875 L 14.117188 30.285156 C 13.941406 30.457031 13.710938 30.542969 13.480469 30.542969 Z M 11.035156 7.917969 C 11.011719 7.917969 10.992188 7.917969 10.96875 7.917969 C 8.9375 7.9375 7.039062 8.734375 5.628906 10.171875 C 2.765625 13.085938 2.832031 17.832031 5.777344 20.75 L 13.480469 28.390625 L 22.414062 19.535156 C 24.71875 17.25 24.71875 13.527344 22.414062 11.242188 C 21.929688 10.761719 21.289062 10.5 20.605469 10.5 C 20.210938 10.5 19.828125 10.589844 19.484375 10.753906 C 20.503906 12.082031 21.058594 13.691406 21.058594 15.390625 C 21.058594 17.433594 20.257812 19.351562 18.800781 20.796875 L 14.117188 25.4375 C 13.765625 25.789062 13.195312 25.789062 12.84375 25.4375 L 6.929688 19.574219 C 4.65625 17.320312 4.582031 13.640625 6.765625 11.367188 C 7.863281 10.226562 9.34375 9.585938 10.9375 9.558594 C 12.53125 9.542969 14.039062 10.132812 15.167969 11.238281 C 15.46875 11.535156 15.957031 11.535156 16.253906 11.238281 L 16.882812 10.617188 L 16.34375 10.082031 C 14.925781 8.6875 13.042969 7.917969 11.035156 7.917969 Z M 11.03125 11.34375 C 11.011719 11.34375 10.988281 11.34375 10.96875 11.34375 C 9.859375 11.363281 8.832031 11.804688 8.070312 12.597656 C 6.554688 14.175781 6.613281 16.738281 8.203125 18.3125 L 13.480469 23.546875 L 17.527344 19.535156 C 19.617188 17.464844 19.8125 14.214844 18.113281 11.921875 L 17.527344 12.503906 C 16.527344 13.492188 14.902344 13.496094 13.898438 12.507812 C 13.132812 11.757812 12.117188 11.34375 11.03125 11.34375 Z M 11.03125 11.34375 " fill-opacity="1" fill-rule="nonzero"/></g><g fill="#ea728c" fill-opacity="1"><g transform="translate(28.608885, 22.364207)"><g><path d="M 2 0.078125 C 1.71875 0.078125 1.492188 0 1.328125 -0.15625 C 1.160156 -0.320312 1.078125 -0.550781 1.078125 -0.84375 L 1.078125 -9.1875 C 1.078125 -9.457031 1.15625 -9.671875 1.3125 -9.828125 C 1.476562 -9.984375 1.695312 -10.0625 1.96875 -10.0625 L 5.484375 -10.0625 C 6.554688 -10.0625 7.390625 -9.789062 7.984375 -9.25 C 8.585938 -8.707031 8.890625 -7.953125 8.890625 -6.984375 C 8.890625 -6.015625 8.585938 -5.257812 7.984375 -4.71875 C 7.390625 -4.175781 6.554688 -3.90625 5.484375 -3.90625 L 2.921875 -3.90625 L 2.921875 -0.84375 C 2.921875 -0.550781 2.835938 -0.320312 2.671875 -0.15625 C 2.503906 0 2.28125 0.078125 2 0.078125 Z M 5.25 -5.328125 C 6.507812 -5.328125 7.140625 -5.875 7.140625 -6.96875 C 7.140625 -8.070312 6.507812 -8.625 5.25 -8.625 L 2.921875 -8.625 L 2.921875 -5.328125 Z M 5.25 -5.328125 "/></g></g></g><g fill="#ea728c" fill-opacity="1"><g transform="translate(37.732916, 22.364207)"><g><path d="M 4.828125 -7.125 C 5.066406 -7.132812 5.257812 -7.078125 5.40625 -6.953125 C 5.550781 -6.835938 5.625 -6.65625 5.625 -6.40625 C 5.625 -6.144531 5.5625 -5.953125 5.4375 -5.828125 C 5.3125 -5.710938 5.085938 -5.632812 4.765625 -5.59375 L 4.34375 -5.546875 C 3.78125 -5.492188 3.363281 -5.304688 3.09375 -4.984375 C 2.832031 -4.660156 2.703125 -4.253906 2.703125 -3.765625 L 2.703125 -0.765625 C 2.703125 -0.492188 2.617188 -0.285156 2.453125 -0.140625 C 2.285156 0.00390625 2.070312 0.078125 1.8125 0.078125 C 1.550781 0.078125 1.335938 0.00390625 1.171875 -0.140625 C 1.003906 -0.285156 0.921875 -0.492188 0.921875 -0.765625 L 0.921875 -6.296875 C 0.921875 -6.554688 1.003906 -6.757812 1.171875 -6.90625 C 1.335938 -7.050781 1.546875 -7.125 1.796875 -7.125 C 2.046875 -7.125 2.242188 -7.050781 2.390625 -6.90625 C 2.546875 -6.769531 2.625 -6.570312 2.625 -6.3125 L 2.625 -5.75 C 2.800781 -6.164062 3.066406 -6.488281 3.421875 -6.71875 C 3.785156 -6.945312 4.1875 -7.078125 4.625 -7.109375 Z M 4.828125 -7.125 "/></g></g></g><g fill="#ea728c" fill-opacity="1"><g transform="translate(42.907844, 22.364207)"><g><path d="M 3.953125 -7.140625 C 4.921875 -7.140625 5.640625 -6.898438 6.109375 -6.421875 C 6.578125 -5.941406 6.8125 -5.210938 6.8125 -4.234375 L 6.8125 -0.75 C 6.8125 -0.5 6.734375 -0.296875 6.578125 -0.140625 C 6.429688 0.00390625 6.226562 0.078125 5.96875 0.078125 C 5.71875 0.078125 5.515625 0 5.359375 -0.15625 C 5.203125 -0.3125 5.125 -0.507812 5.125 -0.75 L 5.125 -1.0625 C 4.957031 -0.695312 4.703125 -0.410156 4.359375 -0.203125 C 4.015625 0.00390625 3.613281 0.109375 3.15625 0.109375 C 2.6875 0.109375 2.257812 0.015625 1.875 -0.171875 C 1.5 -0.359375 1.203125 -0.617188 0.984375 -0.953125 C 0.765625 -1.285156 0.65625 -1.65625 0.65625 -2.0625 C 0.65625 -2.582031 0.785156 -2.988281 1.046875 -3.28125 C 1.304688 -3.570312 1.726562 -3.785156 2.3125 -3.921875 C 2.90625 -4.054688 3.722656 -4.125 4.765625 -4.125 L 5.125 -4.125 L 5.125 -4.453125 C 5.125 -4.921875 5.019531 -5.257812 4.8125 -5.46875 C 4.613281 -5.6875 4.296875 -5.796875 3.859375 -5.796875 C 3.578125 -5.796875 3.289062 -5.753906 3 -5.671875 C 2.71875 -5.585938 2.382812 -5.472656 2 -5.328125 C 1.75 -5.203125 1.566406 -5.140625 1.453125 -5.140625 C 1.285156 -5.140625 1.144531 -5.195312 1.03125 -5.3125 C 0.925781 -5.4375 0.875 -5.601562 0.875 -5.8125 C 0.875 -5.96875 0.910156 -6.101562 0.984375 -6.21875 C 1.066406 -6.34375 1.203125 -6.457031 1.390625 -6.5625 C 1.722656 -6.738281 2.117188 -6.878906 2.578125 -6.984375 C 3.046875 -7.085938 3.503906 -7.140625 3.953125 -7.140625 Z M 3.515625 -1.171875 C 3.984375 -1.171875 4.367188 -1.328125 4.671875 -1.640625 C 4.972656 -1.960938 5.125 -2.375 5.125 -2.875 L 5.125 -3.1875 L 4.859375 -3.1875 C 4.222656 -3.1875 3.726562 -3.15625 3.375 -3.09375 C 3.03125 -3.039062 2.78125 -2.941406 2.625 -2.796875 C 2.46875 -2.648438 2.390625 -2.457031 2.390625 -2.21875 C 2.390625 -1.90625 2.492188 -1.648438 2.703125 -1.453125 C 2.921875 -1.265625 3.191406 -1.171875 3.515625 -1.171875 Z M 3.515625 -1.171875 "/></g></g></g><g fill="#ea728c" fill-opacity="1"><g transform="translate(50.321079, 22.364207)"><g><path d="M 4.5625 0.125 C 3.832031 0.125 3.140625 0.03125 2.484375 -0.15625 C 1.835938 -0.351562 1.3125 -0.617188 0.90625 -0.953125 C 0.6875 -1.117188 0.578125 -1.347656 0.578125 -1.640625 C 0.578125 -1.835938 0.632812 -2.007812 0.75 -2.15625 C 0.863281 -2.300781 1.003906 -2.375 1.171875 -2.375 C 1.335938 -2.375 1.53125 -2.3125 1.75 -2.1875 C 2.164062 -1.882812 2.59375 -1.664062 3.03125 -1.53125 C 3.476562 -1.40625 3.972656 -1.34375 4.515625 -1.34375 C 5.210938 -1.34375 5.742188 -1.460938 6.109375 -1.703125 C 6.484375 -1.941406 6.671875 -2.296875 6.671875 -2.765625 C 6.671875 -3.128906 6.5 -3.40625 6.15625 -3.59375 C 5.8125 -3.789062 5.234375 -3.984375 4.421875 -4.171875 C 3.585938 -4.347656 2.90625 -4.554688 2.375 -4.796875 C 1.851562 -5.035156 1.457031 -5.335938 1.1875 -5.703125 C 0.925781 -6.078125 0.796875 -6.550781 0.796875 -7.125 C 0.796875 -7.707031 0.960938 -8.234375 1.296875 -8.703125 C 1.628906 -9.171875 2.09375 -9.535156 2.6875 -9.796875 C 3.28125 -10.054688 3.945312 -10.1875 4.6875 -10.1875 C 6.050781 -10.1875 7.160156 -9.820312 8.015625 -9.09375 C 8.140625 -8.988281 8.226562 -8.882812 8.28125 -8.78125 C 8.332031 -8.6875 8.359375 -8.566406 8.359375 -8.421875 C 8.359375 -8.210938 8.296875 -8.035156 8.171875 -7.890625 C 8.054688 -7.742188 7.921875 -7.671875 7.765625 -7.671875 C 7.671875 -7.671875 7.582031 -7.6875 7.5 -7.71875 C 7.414062 -7.75 7.304688 -7.800781 7.171875 -7.875 C 6.785156 -8.15625 6.410156 -8.363281 6.046875 -8.5 C 5.679688 -8.644531 5.226562 -8.71875 4.6875 -8.71875 C 4.039062 -8.71875 3.53125 -8.585938 3.15625 -8.328125 C 2.78125 -8.066406 2.59375 -7.703125 2.59375 -7.234375 C 2.59375 -6.835938 2.757812 -6.535156 3.09375 -6.328125 C 3.425781 -6.117188 3.992188 -5.925781 4.796875 -5.75 C 5.640625 -5.5625 6.320312 -5.347656 6.84375 -5.109375 C 7.375 -4.878906 7.78125 -4.582031 8.0625 -4.21875 C 8.34375 -3.863281 8.484375 -3.414062 8.484375 -2.875 C 8.484375 -2.28125 8.316406 -1.753906 7.984375 -1.296875 C 7.660156 -0.847656 7.203125 -0.5 6.609375 -0.25 C 6.015625 0 5.332031 0.125 4.5625 0.125 Z M 4.5625 0.125 "/></g></g></g><g fill="#ea728c" fill-opacity="1"><g transform="translate(59.131467, 22.364207)"><g><path d="M 6.453125 -1.90625 C 6.609375 -1.90625 6.734375 -1.84375 6.828125 -1.71875 C 6.929688 -1.601562 6.984375 -1.441406 6.984375 -1.234375 C 6.984375 -0.929688 6.8125 -0.679688 6.46875 -0.484375 C 6.144531 -0.304688 5.773438 -0.160156 5.359375 -0.046875 C 4.953125 0.0546875 4.5625 0.109375 4.1875 0.109375 C 3.070312 0.109375 2.1875 -0.210938 1.53125 -0.859375 C 0.875 -1.503906 0.546875 -2.390625 0.546875 -3.515625 C 0.546875 -4.222656 0.6875 -4.851562 0.96875 -5.40625 C 1.25 -5.957031 1.648438 -6.382812 2.171875 -6.6875 C 2.691406 -6.988281 3.28125 -7.140625 3.9375 -7.140625 C 4.5625 -7.140625 5.109375 -7 5.578125 -6.71875 C 6.046875 -6.445312 6.40625 -6.0625 6.65625 -5.5625 C 6.914062 -5.0625 7.046875 -4.46875 7.046875 -3.78125 C 7.046875 -3.375 6.863281 -3.171875 6.5 -3.171875 L 2.296875 -3.171875 C 2.347656 -2.515625 2.53125 -2.03125 2.84375 -1.71875 C 3.164062 -1.40625 3.625 -1.25 4.21875 -1.25 C 4.519531 -1.25 4.785156 -1.285156 5.015625 -1.359375 C 5.253906 -1.441406 5.523438 -1.550781 5.828125 -1.6875 C 6.109375 -1.832031 6.316406 -1.90625 6.453125 -1.90625 Z M 3.984375 -5.890625 C 3.492188 -5.890625 3.101562 -5.738281 2.8125 -5.4375 C 2.519531 -5.132812 2.347656 -4.695312 2.296875 -4.125 L 5.515625 -4.125 C 5.503906 -4.707031 5.363281 -5.144531 5.09375 -5.4375 C 4.820312 -5.738281 4.453125 -5.890625 3.984375 -5.890625 Z M 3.984375 -5.890625 "/></g></g></g><g fill="#ea728c" fill-opacity="1"><g transform="translate(66.416382, 22.364207)"><g><path d="M 9.21875 -7.140625 C 9.976562 -7.140625 10.554688 -6.914062 10.953125 -6.46875 C 11.359375 -6.019531 11.5625 -5.289062 11.5625 -4.28125 L 11.5625 -0.765625 C 11.5625 -0.492188 11.476562 -0.285156 11.3125 -0.140625 C 11.144531 0.00390625 10.929688 0.078125 10.671875 0.078125 C 10.410156 0.078125 10.195312 0.00390625 10.03125 -0.140625 C 9.863281 -0.285156 9.78125 -0.492188 9.78125 -0.765625 L 9.78125 -4.28125 C 9.78125 -4.800781 9.6875 -5.171875 9.5 -5.390625 C 9.320312 -5.617188 9.039062 -5.734375 8.65625 -5.734375 C 8.1875 -5.734375 7.8125 -5.570312 7.53125 -5.25 C 7.257812 -4.9375 7.125 -4.503906 7.125 -3.953125 L 7.125 -0.765625 C 7.125 -0.492188 7.039062 -0.285156 6.875 -0.140625 C 6.71875 0.00390625 6.507812 0.078125 6.25 0.078125 C 5.988281 0.078125 5.769531 0.00390625 5.59375 -0.140625 C 5.425781 -0.285156 5.34375 -0.492188 5.34375 -0.765625 L 5.34375 -4.28125 C 5.34375 -4.800781 5.25 -5.171875 5.0625 -5.390625 C 4.882812 -5.617188 4.601562 -5.734375 4.21875 -5.734375 C 3.757812 -5.734375 3.390625 -5.570312 3.109375 -5.25 C 2.835938 -4.9375 2.703125 -4.503906 2.703125 -3.953125 L 2.703125 -0.765625 C 2.703125 -0.492188 2.617188 -0.285156 2.453125 -0.140625 C 2.285156 0.00390625 2.070312 0.078125 1.8125 0.078125 C 1.550781 0.078125 1.335938 0.00390625 1.171875 -0.140625 C 1.003906 -0.285156 0.921875 -0.492188 0.921875 -0.765625 L 0.921875 -6.296875 C 0.921875 -6.554688 1.003906 -6.757812 1.171875 -6.90625 C 1.347656 -7.050781 1.566406 -7.125 1.828125 -7.125 C 2.078125 -7.125 2.28125 -7.050781 2.4375 -6.90625 C 2.59375 -6.769531 2.671875 -6.570312 2.671875 -6.3125 L 2.671875 -5.984375 C 2.890625 -6.359375 3.179688 -6.644531 3.546875 -6.84375 C 3.910156 -7.039062 4.332031 -7.140625 4.8125 -7.140625 C 5.851562 -7.140625 6.550781 -6.703125 6.90625 -5.828125 C 7.113281 -6.234375 7.421875 -6.550781 7.828125 -6.78125 C 8.234375 -7.019531 8.695312 -7.140625 9.21875 -7.140625 Z M 9.21875 -7.140625 "/></g></g></g><g fill="#ea728c" fill-opacity="1"><g transform="translate(78.577088, 22.364207)"><g><path d="M 4.9375 -7.140625 C 5.53125 -7.140625 6.0625 -6.988281 6.53125 -6.6875 C 7.007812 -6.382812 7.378906 -5.953125 7.640625 -5.390625 C 7.898438 -4.835938 8.03125 -4.203125 8.03125 -3.484375 C 8.03125 -2.753906 7.898438 -2.117188 7.640625 -1.578125 C 7.378906 -1.035156 7.015625 -0.617188 6.546875 -0.328125 C 6.078125 -0.0351562 5.539062 0.109375 4.9375 0.109375 C 4.4375 0.109375 3.992188 0.00390625 3.609375 -0.203125 C 3.222656 -0.410156 2.921875 -0.695312 2.703125 -1.0625 L 2.703125 1.84375 C 2.703125 2.09375 2.617188 2.285156 2.453125 2.421875 C 2.296875 2.566406 2.085938 2.640625 1.828125 2.640625 C 1.554688 2.640625 1.335938 2.5625 1.171875 2.40625 C 1.003906 2.257812 0.921875 2.0625 0.921875 1.8125 L 0.921875 -6.28125 C 0.921875 -6.53125 1 -6.734375 1.15625 -6.890625 C 1.3125 -7.046875 1.523438 -7.125 1.796875 -7.125 C 2.066406 -7.125 2.28125 -7.046875 2.4375 -6.890625 C 2.601562 -6.734375 2.6875 -6.53125 2.6875 -6.28125 L 2.6875 -5.921875 C 2.894531 -6.304688 3.195312 -6.601562 3.59375 -6.8125 C 3.988281 -7.03125 4.4375 -7.140625 4.9375 -7.140625 Z M 4.46875 -1.265625 C 5.03125 -1.265625 5.46875 -1.457031 5.78125 -1.84375 C 6.09375 -2.226562 6.25 -2.773438 6.25 -3.484375 C 6.25 -4.203125 6.09375 -4.757812 5.78125 -5.15625 C 5.46875 -5.5625 5.03125 -5.765625 4.46875 -5.765625 C 3.894531 -5.765625 3.453125 -5.566406 3.140625 -5.171875 C 2.835938 -4.785156 2.6875 -4.234375 2.6875 -3.515625 C 2.6875 -2.796875 2.835938 -2.238281 3.140625 -1.84375 C 3.453125 -1.457031 3.894531 -1.265625 4.46875 -1.265625 Z M 4.46875 -1.265625 "/></g></g></g><g fill="#ea728c" fill-opacity="1"><g transform="translate(86.859979, 22.364207)"><g><path d="M 4.828125 -7.125 C 5.066406 -7.132812 5.257812 -7.078125 5.40625 -6.953125 C 5.550781 -6.835938 5.625 -6.65625 5.625 -6.40625 C 5.625 -6.144531 5.5625 -5.953125 5.4375 -5.828125 C 5.3125 -5.710938 5.085938 -5.632812 4.765625 -5.59375 L 4.34375 -5.546875 C 3.78125 -5.492188 3.363281 -5.304688 3.09375 -4.984375 C 2.832031 -4.660156 2.703125 -4.253906 2.703125 -3.765625 L 2.703125 -0.765625 C 2.703125 -0.492188 2.617188 -0.285156 2.453125 -0.140625 C 2.285156 0.00390625 2.070312 0.078125 1.8125 0.078125 C 1.550781 0.078125 1.335938 0.00390625 1.171875 -0.140625 C 1.003906 -0.285156 0.921875 -0.492188 0.921875 -0.765625 L 0.921875 -6.296875 C 0.921875 -6.554688 1.003906 -6.757812 1.171875 -6.90625 C 1.335938 -7.050781 1.546875 -7.125 1.796875 -7.125 C 2.046875 -7.125 2.242188 -7.050781 2.390625 -6.90625 C 2.546875 -6.769531 2.625 -6.570312 2.625 -6.3125 L 2.625 -5.75 C 2.800781 -6.164062 3.066406 -6.488281 3.421875 -6.71875 C 3.785156 -6.945312 4.1875 -7.078125 4.625 -7.109375 Z M 4.828125 -7.125 "/></g></g></g><g fill="#ea728c" fill-opacity="1"><g transform="translate(92.03491, 22.364207)"><g><path d="M 6.453125 -1.90625 C 6.609375 -1.90625 6.734375 -1.84375 6.828125 -1.71875 C 6.929688 -1.601562 6.984375 -1.441406 6.984375 -1.234375 C 6.984375 -0.929688 6.8125 -0.679688 6.46875 -0.484375 C 6.144531 -0.304688 5.773438 -0.160156 5.359375 -0.046875 C 4.953125 0.0546875 4.5625 0.109375 4.1875 0.109375 C 3.070312 0.109375 2.1875 -0.210938 1.53125 -0.859375 C 0.875 -1.503906 0.546875 -2.390625 0.546875 -3.515625 C 0.546875 -4.222656 0.6875 -4.851562 0.96875 -5.40625 C 1.25 -5.957031 1.648438 -6.382812 2.171875 -6.6875 C 2.691406 -6.988281 3.28125 -7.140625 3.9375 -7.140625 C 4.5625 -7.140625 5.109375 -7 5.578125 -6.71875 C 6.046875 -6.445312 6.40625 -6.0625 6.65625 -5.5625 C 6.914062 -5.0625 7.046875 -4.46875 7.046875 -3.78125 C 7.046875 -3.375 6.863281 -3.171875 6.5 -3.171875 L 2.296875 -3.171875 C 2.347656 -2.515625 2.53125 -2.03125 2.84375 -1.71875 C 3.164062 -1.40625 3.625 -1.25 4.21875 -1.25 C 4.519531 -1.25 4.785156 -1.285156 5.015625 -1.359375 C 5.253906 -1.441406 5.523438 -1.550781 5.828125 -1.6875 C 6.109375 -1.832031 6.316406 -1.90625 6.453125 -1.90625 Z M 3.984375 -5.890625 C 3.492188 -5.890625 3.101562 -5.738281 2.8125 -5.4375 C 2.519531 -5.132812 2.347656 -4.695312 2.296875 -4.125 L 5.515625 -4.125 C 5.503906 -4.707031 5.363281 -5.144531 5.09375 -5.4375 C 4.820312 -5.738281 4.453125 -5.890625 3.984375 -5.890625 Z M 3.984375 -5.890625 "/></g></g></g></svg>